<svg width="49" height="49" viewBox="0 0 49 49" fill="none" xmlns="http://www.w3.org/2000/svg">
<g id="sticker">
<path id="icon" d="M43.3853 32.0538V12.2242C43.3853 8.56725 40.4323 5.61426 36.7754 5.61426H12.2244C8.56749 5.61426 5.6145 8.56725 5.6145 12.2242V36.7752C5.6145 40.4321 8.56749 43.3851 12.2244 43.3851H32.0541L43.3853 32.0538ZM12.2244 39.608C10.6621 39.608 9.39159 38.3375 9.39159 36.7752V12.2242C9.39159 10.6618 10.6621 9.39134 12.2244 9.39134H36.7754C38.3378 9.39134 39.6083 10.6618 39.6083 12.2242V30.1653H36.7754C33.1185 30.1653 30.1655 33.1183 30.1655 36.7752V39.608H12.2244ZM20.2765 20.3105C19.7786 18.5594 17.9587 17.5292 16.2075 18.0271C14.4563 18.525 13.4262 20.3449 13.9241 22.1132C14.0614 22.594 14.3018 23.0232 14.6108 23.3837L20.3451 21.7699C20.431 21.2892 20.4138 20.7913 20.2765 20.3105ZM32.0884 16.9798C31.6077 15.2287 29.7707 14.1985 28.0195 14.6964C26.2683 15.1943 25.2382 17.0142 25.7361 18.7825C25.8734 19.2633 26.1138 19.6925 26.4228 20.053L32.1571 18.4392C32.2429 17.9585 32.2258 17.4606 32.0884 16.9798ZM33.7709 22.8858L15.5723 28.0192C18.0274 31.2641 22.2852 32.8436 26.4228 31.6761C30.5604 30.5087 33.3589 26.9204 33.7709 22.8858Z" fill="white"/>
</g>
</svg>
