<svg width="43" height="43" viewBox="0 0 43 43" fill="none" xmlns="http://www.w3.org/2000/svg">
<path id="icon" d="M8.18125 32.0875C9.9875 30.7063 12.0063 29.6172 14.2375 28.8203C16.4688 28.0234 18.8062 27.625 21.25 27.625C23.6938 27.625 26.0312 28.0234 28.2625 28.8203C30.4937 29.6172 32.5125 30.7063 34.3187 32.0875C35.5583 30.6354 36.5234 28.9885 37.2141 27.1469C37.9047 25.3052 38.25 23.3396 38.25 21.25C38.25 16.5396 36.5943 12.5286 33.2828 9.21719C29.9714 5.90573 25.9604 4.25 21.25 4.25C16.5396 4.25 12.5286 5.90573 9.21719 9.21719C5.90573 12.5286 4.25 16.5396 4.25 21.25C4.25 23.3396 4.59531 25.3052 5.28594 27.1469C5.97656 28.9885 6.94167 30.6354 8.18125 32.0875ZM21.25 23.375C19.1604 23.375 17.3984 22.6578 15.9641 21.2234C14.5297 19.7891 13.8125 18.0271 13.8125 15.9375C13.8125 13.8479 14.5297 12.0859 15.9641 10.6516C17.3984 9.21719 19.1604 8.5 21.25 8.5C23.3396 8.5 25.1016 9.21719 26.5359 10.6516C27.9703 12.0859 28.6875 13.8479 28.6875 15.9375C28.6875 18.0271 27.9703 19.7891 26.5359 21.2234C25.1016 22.6578 23.3396 23.375 21.25 23.375ZM21.25 42.5C18.3104 42.5 15.5479 41.9422 12.9625 40.8266C10.3771 39.7109 8.12813 38.1969 6.21562 36.2844C4.30312 34.3719 2.78906 32.1229 1.67344 29.5375C0.557812 26.9521 0 24.1896 0 21.25C0 18.3104 0.557812 15.5479 1.67344 12.9625C2.78906 10.3771 4.30312 8.12813 6.21562 6.21562C8.12813 4.30312 10.3771 2.78906 12.9625 1.67344C15.5479 0.557812 18.3104 0 21.25 0C24.1896 0 26.9521 0.557812 29.5375 1.67344C32.1229 2.78906 34.3719 4.30312 36.2844 6.21562C38.1969 8.12813 39.7109 10.3771 40.8266 12.9625C41.9422 15.5479 42.5 18.3104 42.5 21.25C42.5 24.1896 41.9422 26.9521 40.8266 29.5375C39.7109 32.1229 38.1969 34.3719 36.2844 36.2844C34.3719 38.1969 32.1229 39.7109 29.5375 40.8266C26.9521 41.9422 24.1896 42.5 21.25 42.5Z" fill="white"/>
</svg>
