<svg width="111" height="107" viewBox="0 0 111 107" fill="none" xmlns="http://www.w3.org/2000/svg">
<g filter="url(#filter0_dd_481_1045)">
<path d="M57.042 27.9182L71.2771 19.4129C73.2467 18.2491 75.7536 19.6815 75.7536 22.0093L75.485 38.6617C75.485 40.0047 76.2012 41.1685 77.3651 41.8848L91.8688 49.9424C93.928 51.1063 93.928 53.9712 91.8688 55.1351L77.3651 63.1927C76.2012 63.8194 75.485 65.0729 75.485 66.4158L75.7536 83.0682C75.7536 85.396 73.2467 86.8285 71.2771 85.6646L57.042 77.1593C55.8781 76.4431 54.5351 76.4431 53.3713 77.1593L39.1361 85.6646C37.1665 86.8285 34.6596 85.396 34.6596 83.0682L34.9282 66.4158C34.9282 65.0729 34.212 63.909 33.0481 63.1927L18.5444 55.1351C16.4852 53.9712 16.4852 51.1063 18.5444 49.9424L33.0481 41.8848C34.212 41.2581 34.9282 40.0047 34.9282 38.6617L34.6596 22.0093C34.6596 19.6815 37.1665 18.2491 39.1361 19.4129L53.3713 27.9182C54.5351 28.6345 55.8781 28.6345 57.042 27.9182Z" stroke="#FF3B30" stroke-width="4" stroke-miterlimit="10" shape-rendering="crispEdges"/>
</g>
<path d="M56.7731 40.7211L63.4878 35.2598C64.9203 34.0959 67.069 35.2598 66.8004 37.1399L65.4575 45.6452C65.2784 46.63 65.8156 47.6148 66.8004 47.973L74.858 51.017C76.5591 51.6437 76.5591 54.1505 74.858 54.7772L66.8004 57.8212C65.9051 58.1793 65.2784 59.1641 65.4575 60.1489L66.8004 68.6542C67.069 70.4448 65.0098 71.6982 63.4878 70.5343L56.7731 65.073C55.9674 64.4463 54.893 64.4463 54.0873 65.073L47.3726 70.5343C45.9401 71.6982 43.7914 70.5343 44.06 68.6542L45.4029 60.1489C45.582 59.1641 45.0448 58.1793 44.06 57.8212L36.0024 54.7772C34.3013 54.1505 34.3013 51.6437 36.0024 51.017L44.06 47.973C44.9553 47.6148 45.582 46.63 45.4029 45.6452L44.06 37.1399C43.7914 35.3493 45.8506 34.0959 47.3726 35.2598L54.0873 40.7211C54.893 41.3478 55.9674 41.3478 56.7731 40.7211Z" fill="#FF3B30" stroke="#FF3B30" stroke-width="2" stroke-miterlimit="10"/>
<defs>
<filter id="filter0_dd_481_1045" x="0" y="-0.00512695" width="110.413" height="106.088" filterUnits="userSpaceOnUse" color-interpolation-filters="sRGB">
<feFlood flood-opacity="0" result="BackgroundImageFix"/>
<feColorMatrix in="SourceAlpha" type="matrix" values="0 0 0 0 0 0 0 0 0 0 0 0 0 0 0 0 0 0 127 0" result="hardAlpha"/>
<feOffset dy="-2"/>
<feGaussianBlur stdDeviation="7.5"/>
<feComposite in2="hardAlpha" operator="out"/>
<feColorMatrix type="matrix" values="0 0 0 0 1 0 0 0 0 0 0 0 0 0 0 0 0 0 0.25 0"/>
<feBlend mode="normal" in2="BackgroundImageFix" result="effect1_dropShadow_481_1045"/>
<feColorMatrix in="SourceAlpha" type="matrix" values="0 0 0 0 0 0 0 0 0 0 0 0 0 0 0 0 0 0 127 0" result="hardAlpha"/>
<feOffset dy="3"/>
<feGaussianBlur stdDeviation="7.5"/>
<feComposite in2="hardAlpha" operator="out"/>
<feColorMatrix type="matrix" values="0 0 0 0 1 0 0 0 0 0 0 0 0 0 0 0 0 0 0.25 0"/>
<feBlend mode="normal" in2="effect1_dropShadow_481_1045" result="effect2_dropShadow_481_1045"/>
<feBlend mode="normal" in="SourceGraphic" in2="effect2_dropShadow_481_1045" result="shape"/>
</filter>
</defs>
</svg>
